<svg width="33" height="26" viewBox="0 0 33 26" fill="none" xmlns="http://www.w3.org/2000/svg">
<g id="Layer_1" clip-path="url(#clip0_220_12)">
<g id="Group">
<path id="Vector" d="M32.3309 1.02399H0.744873V3.89542H32.3309V1.02399Z" fill="#fff"/>
<path id="Vector_2" d="M32.3309 12.0309H0.744873V14.9023H32.3309V12.0309Z" fill="#fff"/>
<path id="Vector_3" d="M32.3309 23.0383H0.744873V25.9097H32.3309V23.0383Z" fill="#fff"/>
<path id="Vector_4" d="M32.021 1.582H1.15618C0.65284 1.582 0.244873 1.26057 0.244873 0.864282C0.244873 0.467425 0.65284 0.145996 1.15618 0.145996H32.021C32.5243 0.145996 32.9323 0.467425 32.9323 0.864282C32.9323 1.26057 32.5243 1.582 32.021 1.582Z" fill="white"/>
<path id="Vector_5" d="M32.021 12.3906H1.15618C0.65284 12.3906 0.244873 12.0692 0.244873 11.6723C0.244873 11.276 0.65284 10.9546 1.15618 10.9546H32.021C32.5243 10.9546 32.9323 11.276 32.9323 11.6723C32.9323 12.0692 32.5243 12.3906 32.021 12.3906Z" fill="white"/>
<path id="Vector_6" d="M32.021 23.1977H1.15618C0.65284 23.1977 0.244873 22.8763 0.244873 22.4797C0.244873 22.0831 0.65284 21.7617 1.15618 21.7617H32.021C32.5243 21.7617 32.9323 22.0831 32.9323 22.4797C32.9323 22.8763 32.5243 23.1977 32.021 23.1977Z" fill="white"/>
</g>
</g>
<defs>
<clipPath id="clip0_220_12">
<rect width="33" height="26" fill="white"/>
</clipPath>
</defs>
</svg>
