<svg width="113" height="130" viewBox="0 0 113 130" fill="none" xmlns="http://www.w3.org/2000/svg">
<rect width="113" height="130" fill="#1E1E1E"/>
<g id="Group 14">
<path id="Vector" opacity="0.36" d="M92.7601 16.2617L83.9047 7.50542C73.7842 -2.50181 57.3877 -2.50181 47.2673 7.50542L7.59036 46.7545C-2.53012 56.7617 -2.53012 72.9747 7.59036 82.9657L37.8368 112.857C70.1369 89.9838 93.253 53.7888 92.7601 16.2617Z" fill="url(#paint0_linear_0_1)"/>
<path id="Vector_2" opacity="0.36" d="M112.837 36.1137L98.7076 22.1426C95.7996 60.7906 78.4666 100.088 45.9694 120.915L47.2673 122.199C51.1446 126.032 55.9584 128.388 60.9694 129.282C92.7766 109.235 113.56 73.6083 112.837 36.1137Z" fill="url(#paint1_linear_0_1)"/>
</g>
<defs>
<linearGradient id="paint0_linear_0_1" x1="14.2461" y1="89.5437" x2="89.7038" y2="13.232" gradientUnits="userSpaceOnUse">
<stop offset="0.208333" stop-color="white" stop-opacity="0.26"/>
<stop offset="0.9303" stop-color="white" stop-opacity="0.8827"/>
<stop offset="1" stop-color="white"/>
</linearGradient>
<linearGradient id="paint1_linear_0_1" x1="40.9944" y1="115.993" x2="116.452" y2="39.6818" gradientUnits="userSpaceOnUse">
<stop offset="0.219022" stop-color="white" stop-opacity="0"/>
<stop offset="0.728853" stop-color="white" stop-opacity="0.8827"/>
<stop offset="0.939921" stop-color="white"/>
</linearGradient>
</defs>
</svg>
